<svg width="160" height="32" viewBox="0 0 160 32" fill="none" xmlns="http://www.w3.org/2000/svg">
<path d="M49.8424 9.05846C49.8424 2.36308 42.9576 0 37.1394 0C32.9697 0 23.3697 0.984615 22.7879 10.24C22.7879 10.4369 22.8848 10.6338 22.9818 10.8308C23.0788 10.9292 23.2727 11.0277 23.4667 11.0277H30.4485C30.8364 11.0277 31.1273 10.7323 31.1273 10.4369C31.4182 7.18769 34.3273 6.49846 36.7515 6.49846C40.2424 6.49846 41.9879 7.58154 41.9879 9.74769C41.9879 11.9138 40.3394 12.3077 36.8485 12.7015C35.9758 12.8 35.0061 12.8985 34.0364 13.0954C29.7697 13.5877 21.8182 14.4738 21.8182 22.8431C21.8182 28.8492 27.4424 32 32.9697 32C36.0727 32 40.2424 31.1138 43.0545 28.5538C45.1879 26.5846 47.7091 25.8954 49.4545 25.8954C49.6485 25.8954 49.7455 25.7969 49.8424 25.6985C49.9394 25.6 49.9394 25.4031 49.9394 25.3046C49.8424 25.1077 49.8424 24.8123 49.8424 24.4185V9.05846ZM35.2 25.4031C32.097 25.4031 30.3515 24.32 30.0606 22.3508C29.6727 19.6923 32.3879 18.7077 34.6182 18.3138C35.297 18.2154 36.0727 18.1169 36.8485 18.0185H36.9455C38.5939 17.8215 40.1455 17.6246 41.503 17.0338V20.5785C41.6 24.1231 37.7212 25.4031 35.2 25.4031ZM19.8788 0.886154V16.9354C19.8788 23.7292 18.3273 31.5077 6.20606 31.5077H0.484848C0.193939 31.5077 0 31.3108 0 31.0154V24.32C0 24.0246 0.193939 23.8277 0.484848 23.8277H6.69091C10.7636 23.8277 11.5394 21.3662 11.5394 16.8369V0.886154C11.5394 0.492308 11.8303 0.196923 12.2182 0.196923H19.103C19.4909 0.196923 19.8788 0.492308 19.8788 0.886154ZM97.6485 9.84615V30.8185C97.6485 31.2123 97.3576 31.5077 96.9697 31.5077H89.9879C89.6 31.5077 89.3091 31.2123 89.3091 30.8185V11.8154C89.3091 10.3385 88.9212 6.4 84.4606 6.4C80.2909 6.4 79.8061 9.94462 79.8061 11.8154V30.72C79.8061 31.1138 79.5152 31.4092 79.1273 31.4092H72.2424C71.8545 31.4092 71.5636 31.1138 71.5636 30.72V11.8154C71.5636 9.84615 71.0788 6.4 66.9091 6.4C62.3515 6.4 62.0606 10.3385 62.0606 11.8154V30.72C62.0606 31.1138 61.7697 31.4092 61.3818 31.4092H54.4C54.0121 31.4092 53.7212 31.1138 53.7212 30.72V9.84615C53.6242 3.44615 59.0546 0 66.8121 0C70.4 0 72.3394 0.984615 73.7939 1.67385C74.5697 2.06769 75.0546 2.36308 75.6364 2.36308C76.2182 2.36308 76.703 2.06769 77.4788 1.67385C78.8364 0.984615 80.7758 0 84.3636 0C92.2182 0 97.6485 3.44615 97.6485 9.84615ZM127.903 9.05846C127.903 2.36308 121.018 0 115.2 0C111.03 0 101.43 0.984615 100.848 10.24C100.848 10.4369 100.848 10.6338 101.042 10.8308C101.139 10.9292 101.333 11.0277 101.527 11.0277H108.509C108.897 11.0277 109.188 10.7323 109.188 10.4369C109.479 7.18769 112.388 6.49846 114.812 6.49846C118.303 6.49846 120.048 7.58154 120.048 9.74769C120.048 11.9138 118.4 12.3077 114.909 12.7015C114.036 12.8 113.067 12.8985 112.097 13.0954C107.83 13.5877 99.8788 14.4738 99.8788 22.8431C99.8788 28.8492 105.503 32 111.03 32C114.133 32 118.303 31.1138 121.115 28.5538C123.248 26.5846 125.77 25.8954 127.515 25.8954C127.709 25.8954 127.806 25.7969 127.903 25.6985C128 25.6 128 25.4031 128 25.3046C128 25.1077 127.903 24.8123 127.903 24.4185V9.05846ZM113.261 25.4031C110.158 25.4031 108.412 24.32 108.121 22.3508C107.733 19.6923 110.448 18.7077 112.679 18.3138C113.358 18.2154 114.133 18.1169 114.909 18.0185H115.006C116.655 17.8215 118.206 17.6246 119.564 17.0338V20.5785C119.661 24.1231 115.879 25.4031 113.261 25.4031ZM151.37 0.689231V7.38462C151.37 7.68 151.176 7.87692 150.885 7.87692H144.679C140.606 7.87692 139.83 10.3385 139.83 14.9662V30.9169C139.83 31.3108 139.539 31.6062 139.152 31.6062H132.267C131.879 31.6062 131.588 31.3108 131.588 30.9169V14.7692C131.588 7.97538 133.139 0.196923 145.261 0.196923H150.982C151.176 0.196923 151.37 0.393846 151.37 0.689231ZM157.285 4.43077C157.867 4.33231 158.255 3.93846 158.255 3.34769C158.255 2.56 157.77 2.16615 156.994 2.16615H155.539V6.10462H155.927V4.43077H156.703L157.867 6.20308H158.448L157.285 4.43077ZM155.927 2.65846H156.897C157.479 2.65846 157.77 2.85538 157.77 3.34769C157.77 3.84 157.479 4.03692 156.897 4.03692H155.927V2.65846ZM156.703 0.787692C154.861 0.787692 153.406 2.26462 153.406 4.13538C153.406 6.00615 154.861 7.48308 156.703 7.48308C158.545 7.48308 160 6.00615 160 4.13538C160 2.26462 158.449 0.787692 156.703 0.787692ZM156.703 6.99077C155.152 6.99077 153.891 5.71077 153.891 4.13538C153.891 2.56 155.152 1.28 156.703 1.28C158.255 1.28 159.515 2.56 159.515 4.13538C159.418 5.71077 158.255 6.99077 156.703 6.99077Z" fill="#D8232A"/>
</svg>
