<svg width="306" height="138" viewBox="0 0 306 138" fill="none" xmlns="http://www.w3.org/2000/svg">
<path d="M50.0079 108.27H0.100403V88.5387L47.3487 14.7583H69.9019V90.3657H87.025V108.27H69.9019V132.143H50.0079V108.27ZM50.0079 42.9449H49.673L20.3294 90.3657H50.0079V42.9449Z" fill="#E53327"/>
<path d="M268.923 108.27H219.026V88.5387L266.274 14.7583H288.827V90.3657H305.9V108.27H288.827V132.143H268.923V108.27ZM272.394 42.9449H272.06L242.716 90.3657H272.394V42.9449Z" fill="#E53327"/>
<path d="M149.427 20.6149C139 20.6129 128.806 23.7024 120.135 29.4929C111.463 35.2834 104.703 43.5149 100.709 53.1468C96.7154 62.7786 95.6668 73.3785 97.6961 83.6062C99.7254 93.834 104.742 103.23 112.11 110.608C119.479 117.985 128.87 123.012 139.095 125.053C149.321 127.094 159.922 126.058 169.558 122.075C179.195 118.092 187.434 111.342 193.234 102.677C199.035 94.0121 202.136 83.822 202.146 73.3949C202.154 66.4666 200.797 59.6046 198.151 53.2014C195.505 46.7982 191.623 40.9793 186.727 36.0775C181.831 31.1756 176.016 27.2869 169.616 24.6337C163.216 21.9805 156.355 20.6149 149.427 20.6149Z" fill="white" stroke="#231F20" stroke-width="1.04545" stroke-linecap="round" stroke-linejoin="round"/>
<path d="M177.066 59.8142C178.411 59.8142 179.502 58.1919 179.502 56.1907C179.502 54.1895 178.411 52.5671 177.066 52.5671C175.72 52.5671 174.63 54.1895 174.63 56.1907C174.63 58.1919 175.72 59.8142 177.066 59.8142Z" fill="#231F20"/>
<path d="M87.4919 57.7233L211.322 30.3183L186.962 23.2133C186.962 23.2133 173.767 1.34003 170.245 0.883281C166.723 0.426531 102.717 14.0783 102.717 14.0783L98.6569 44.8937L87.4919 57.7233Z" fill="#231F20"/>
<path d="M128.914 84.3265C128.914 84.3265 160.379 71.7506 174.142 95.1768L128.914 84.3265Z" fill="white"/>
<path d="M174.142 95.7045C174.051 95.7037 173.962 95.6789 173.884 95.6326C173.805 95.5862 173.741 95.52 173.696 95.4406C160.308 72.6742 129.411 84.6918 129.107 84.8136C128.972 84.8661 128.822 84.863 128.69 84.8049C128.558 84.7468 128.454 84.6386 128.401 84.504C128.349 84.3694 128.352 84.2195 128.41 84.0872C128.468 83.9549 128.576 83.8511 128.711 83.7986C129.036 83.6768 160.755 71.3242 174.599 94.8722C174.667 94.9928 174.686 95.135 174.652 95.2692C174.618 95.4034 174.534 95.5194 174.417 95.5929C174.337 95.6545 174.242 95.6932 174.142 95.7045Z" fill="#231F20"/>
<path d="M113.273 131.92L99.2761 109.793L160.46 99.3281L164.662 120.531L170.874 101.003L202.177 107.184L195.813 131.92H113.273Z" fill="#231F20"/>
<path d="M191.674 83.9387L197.314 83.1581L200.228 104.211C200.326 104.915 200.139 105.629 199.711 106.196C199.282 106.763 198.645 107.136 197.941 107.233L197.61 107.279C196.906 107.376 196.192 107.19 195.625 106.761C195.058 106.333 194.685 105.696 194.588 104.992L191.674 83.9387Z" fill="white"/>
<path d="M197.244 107.824C196.475 107.821 195.732 107.542 195.153 107.037C194.573 106.532 194.195 105.834 194.087 105.073L191.174 84.0118C191.157 83.8786 191.193 83.7439 191.275 83.6374C191.357 83.5308 191.477 83.4611 191.611 83.4434L197.244 82.6618C197.31 82.6532 197.377 82.6578 197.442 82.6752C197.506 82.6926 197.567 82.7225 197.619 82.7633C197.673 82.8026 197.718 82.8527 197.751 82.9104C197.784 82.9681 197.805 83.0321 197.812 83.0983L200.705 104.149C200.765 104.564 200.742 104.987 200.637 105.393C200.533 105.799 200.349 106.18 200.096 106.514C199.843 106.849 199.526 107.129 199.163 107.34C198.801 107.551 198.4 107.688 197.985 107.742L197.66 107.793C197.522 107.813 197.383 107.823 197.244 107.824ZM192.25 84.3772L195.092 104.931C195.173 105.5 195.475 106.015 195.933 106.363C196.391 106.711 196.968 106.864 197.538 106.788H197.873C198.442 106.708 198.956 106.405 199.302 105.947C199.648 105.488 199.799 104.911 199.72 104.342L196.878 83.7885L192.25 84.3772Z" fill="#231F20"/>
<path d="M196.441 64.0967L187.342 65.3561L190.192 85.947L199.291 84.6876L196.441 64.0967Z" fill="white"/>
<path d="M190.19 86.4681C190.08 86.4654 189.974 86.4301 189.885 86.3666C189.83 86.3283 189.785 86.2784 189.752 86.2206C189.718 86.1627 189.698 86.0982 189.692 86.0317L186.84 65.4272C186.83 65.3616 186.832 65.2947 186.848 65.2302C186.864 65.1657 186.892 65.105 186.931 65.0516C187.015 64.9481 187.135 64.8793 187.266 64.8588L196.401 63.6002C196.468 63.5902 196.535 63.5937 196.6 63.6104C196.665 63.6271 196.725 63.6567 196.778 63.6975C196.832 63.7382 196.876 63.7893 196.909 63.8475C196.942 63.9058 196.962 63.9701 196.97 64.0366L199.822 84.631C199.839 84.7642 199.803 84.8988 199.721 85.0054C199.639 85.1119 199.519 85.1817 199.386 85.1994L190.251 86.458L190.19 86.4681ZM187.916 65.7926L190.626 85.3821L198.746 84.2656L196.036 64.6761L187.916 65.7926Z" fill="#231F20"/>
<path d="M198.05 99.3996L195.386 99.7683C193.609 100.014 192.368 101.654 192.614 103.431L196.68 132.809C196.926 134.586 198.566 135.827 200.342 135.581L203.007 135.212C204.784 134.967 206.025 133.327 205.779 131.55L201.713 102.172C201.467 100.395 199.827 99.1536 198.05 99.3996Z" fill="white"/>
<path d="M199.883 136.132C198.977 136.131 198.103 135.803 197.42 135.208C196.737 134.613 196.293 133.791 196.168 132.894L192.108 103.51C192.039 103.022 192.067 102.525 192.19 102.047C192.314 101.57 192.531 101.122 192.829 100.729C193.431 99.9378 194.321 99.4162 195.305 99.2773L197.985 98.9119C198.969 98.7761 199.966 99.0366 200.758 99.6362C201.55 100.236 202.071 101.125 202.207 102.109L206.267 131.544C206.4 132.528 206.139 133.524 205.54 134.315C204.941 135.106 204.053 135.628 203.07 135.767L200.39 136.142L199.883 136.132ZM198.502 99.8863C198.377 99.8763 198.252 99.8763 198.127 99.8863L195.447 100.252C195.09 100.3 194.747 100.42 194.437 100.603C194.126 100.786 193.856 101.029 193.641 101.317C193.42 101.603 193.26 101.93 193.169 102.278C193.078 102.627 193.059 102.991 193.113 103.347L197.173 132.782C197.276 133.492 197.652 134.132 198.221 134.568C198.79 135.004 199.506 135.201 200.218 135.117L202.897 134.741C203.608 134.64 204.25 134.265 204.686 133.696C205.123 133.126 205.319 132.409 205.232 131.696L201.172 102.261C201.082 101.608 200.759 101.01 200.263 100.575C199.767 100.141 199.131 99.9 198.472 99.8965L198.502 99.8863Z" fill="#231F20"/>
<path d="M191.164 83.8696C204.634 83.8696 215.554 72.9497 215.554 59.4792C215.554 46.0087 204.634 35.0887 191.164 35.0887C177.694 35.0887 166.774 46.0087 166.774 59.4792C166.774 72.9497 177.694 83.8696 191.164 83.8696Z" fill="white"/>
<path d="M191.144 84.3772C186.363 84.3751 181.685 82.9974 177.666 80.4086C173.647 77.8199 170.459 74.1294 168.48 69.7778C166.502 65.4261 165.817 60.597 166.509 55.867C167.2 51.137 169.238 46.7058 172.379 43.1023C175.52 39.4989 179.632 36.8754 184.223 35.545C188.815 34.2147 193.692 34.2337 198.273 35.5997C202.854 36.9657 206.945 39.621 210.058 43.2488C213.171 46.8766 215.174 51.3235 215.829 56.0587C216.726 62.5939 214.997 69.2183 211.022 74.482C207.046 79.7457 201.146 83.2198 194.615 84.1438C193.464 84.2987 192.305 84.3767 191.144 84.3772ZM191.144 35.5862C190.04 35.5851 188.938 35.6597 187.845 35.8095C183.164 36.4564 178.779 38.4771 175.246 41.6159C171.713 44.7548 169.191 48.8708 167.997 53.4435C166.804 58.0162 166.993 62.8401 168.541 67.3052C170.089 71.7702 172.927 75.6759 176.695 78.5282C180.463 81.3805 184.992 83.0513 189.71 83.3294C194.428 83.6074 199.122 82.4802 203.199 80.0902C207.276 77.7002 210.553 74.1549 212.615 69.9026C214.677 65.6503 215.431 60.882 214.783 56.2008C213.985 50.5016 211.16 45.2808 206.826 41.4948C202.492 37.7087 196.939 35.6111 191.184 35.5862H191.144Z" fill="#231F20"/>
<path d="M191.164 79.292C202.106 79.292 210.977 70.4215 210.977 59.4792C210.977 48.5369 202.106 39.6664 191.164 39.6664C180.222 39.6664 171.351 48.5369 171.351 59.4792C171.351 70.4215 180.222 79.292 191.164 79.292Z" fill="white"/>
<path d="M191.154 79.7995C185.891 79.7996 180.834 77.7558 177.049 74.0993C173.264 70.4428 171.047 65.4592 170.866 60.1996C170.684 54.9401 172.552 49.8155 176.076 45.9068C179.6 41.998 184.504 39.6105 189.754 39.2478C195.005 38.885 200.19 40.5754 204.218 43.9624C208.246 47.3494 210.801 52.1683 211.345 57.4029C211.889 62.6374 210.378 67.8785 207.132 72.0208C203.886 76.1632 199.158 78.8829 193.945 79.6066C193.02 79.7362 192.088 79.8006 191.154 79.7995ZM191.154 40.2145C190.254 40.2151 189.356 40.2761 188.464 40.3972C183.514 41.0836 179.023 43.6652 175.938 47.5978C172.854 51.5304 171.417 56.5069 171.929 61.4784C172.442 66.45 174.865 71.0282 178.688 74.2483C182.51 77.4684 187.433 79.0788 192.42 78.7401C197.406 78.4014 202.066 76.1401 205.418 72.4327C208.77 68.7253 210.551 63.8614 210.387 58.8662C210.223 53.871 208.126 49.1345 204.538 45.6551C200.95 42.1757 196.152 40.2252 191.154 40.2145Z" fill="#231F20"/>
<path d="M214.458 114.462C213.118 112.761 211.42 111.375 209.485 110.402C203.669 107.357 197 107.458 190.88 109.387C188.708 110.077 184.495 111.062 184.272 113.944C184.28 114.519 184.473 115.076 184.822 115.533C185.171 115.99 185.658 116.323 186.211 116.482C187.322 116.77 188.481 116.815 189.611 116.614C188.001 116.57 186.411 116.971 185.013 117.771C183.704 118.694 182.983 120.714 184.059 121.942C184.534 122.453 185.154 122.807 185.835 122.957C187.316 123.365 188.882 123.344 190.352 122.897C188.762 123.201 187.212 123.688 185.734 124.348C184.841 124.744 183.846 125.444 183.947 126.378C184.049 127.312 184.962 127.738 185.795 128.022C187.546 128.623 189.375 128.965 191.225 129.037C189.628 129.327 188.118 129.976 186.81 130.935C184.78 132.641 184.78 135.878 187.53 136.802C188.413 137.06 189.332 137.167 190.25 137.117C198.37 137.117 208.094 136.102 213.595 129.342C214.929 127.784 215.863 125.924 216.315 123.924C216.768 121.923 216.726 119.843 216.194 117.862C215.818 116.636 215.23 115.485 214.458 114.462Z" fill="white"/>
<path d="M190.19 137.594C189.237 137.64 188.283 137.527 187.368 137.259C186.761 137.074 186.216 136.728 185.791 136.258C185.365 135.788 185.075 135.211 184.952 134.589C184.836 133.839 184.916 133.071 185.182 132.36C185.449 131.649 185.894 131.018 186.475 130.529C187.129 129.986 187.87 129.557 188.667 129.26C187.632 129.085 186.614 128.824 185.622 128.479C184.272 128.012 183.592 127.322 183.44 126.449C183.288 125.576 184.069 124.52 185.47 123.861L186.191 123.556C186.006 123.522 185.823 123.478 185.642 123.424C184.862 123.26 184.152 122.855 183.612 122.267C183.365 121.964 183.184 121.612 183.081 121.234C182.978 120.857 182.955 120.462 183.014 120.075C183.092 119.536 183.278 119.018 183.56 118.553C183.843 118.087 184.216 117.683 184.658 117.365C184.974 117.143 185.314 116.959 185.673 116.817C185.095 116.581 184.602 116.177 184.256 115.658C183.91 115.139 183.729 114.527 183.734 113.904C183.968 110.94 187.632 109.844 190.048 109.103L190.697 108.91C197.477 106.768 204.227 107.144 209.688 109.925C211.696 110.941 213.453 112.39 214.834 114.167C215.644 115.231 216.266 116.425 216.671 117.7C217.233 119.761 217.282 121.928 216.813 124.012C216.344 126.097 215.372 128.034 213.981 129.656C208.226 136.69 198.259 137.604 190.22 137.614L190.19 137.594ZM189.225 123.597C188.098 123.883 186.998 124.267 185.937 124.744C185.46 124.957 184.374 125.535 184.455 126.287C184.536 127.038 185.307 127.302 185.957 127.515C187.66 128.111 189.442 128.453 191.245 128.53C191.367 128.532 191.484 128.578 191.574 128.66C191.664 128.743 191.72 128.855 191.732 128.976C191.746 129.098 191.716 129.22 191.647 129.32C191.578 129.421 191.475 129.493 191.357 129.524C189.835 129.806 188.393 130.42 187.134 131.321C186.684 131.691 186.338 132.172 186.129 132.717C185.921 133.261 185.858 133.851 185.947 134.427C186.036 134.873 186.245 135.286 186.553 135.621C186.861 135.956 187.255 136.199 187.693 136.325C188.519 136.569 189.381 136.665 190.24 136.609C198.066 136.609 207.739 135.736 213.22 129.027C214.505 127.536 215.407 125.752 215.845 123.833C216.284 121.914 216.247 119.916 215.737 118.014C215.364 116.853 214.794 115.765 214.052 114.797C212.767 113.136 211.127 111.783 209.251 110.838C204.024 108.148 197.559 107.793 191.032 109.823L190.372 110.026C188.221 110.676 184.952 111.66 184.77 113.934C184.789 114.398 184.954 114.845 185.242 115.209C185.53 115.574 185.926 115.838 186.373 115.964C186.96 116.151 187.576 116.227 188.19 116.187C188.667 116.137 189.134 116.106 189.581 116.076C189.712 116.072 189.841 116.118 189.94 116.205C190.04 116.291 190.103 116.412 190.119 116.543C190.127 116.675 190.085 116.806 190 116.908C189.915 117.01 189.794 117.075 189.662 117.091C189.205 117.091 188.728 117.192 188.241 117.202C187.199 117.27 186.19 117.598 185.307 118.156C184.977 118.395 184.699 118.698 184.488 119.047C184.277 119.396 184.138 119.783 184.079 120.186C184.04 120.434 184.051 120.687 184.114 120.93C184.177 121.173 184.29 121.4 184.445 121.597C184.857 122.021 185.388 122.311 185.967 122.43C186.959 122.697 187.994 122.766 189.012 122.633C189.418 122.531 189.834 122.44 190.24 122.358C190.368 122.334 190.5 122.359 190.61 122.429C190.719 122.499 190.798 122.608 190.829 122.734C190.858 122.86 190.839 122.993 190.775 123.106C190.711 123.218 190.607 123.303 190.484 123.343C190.072 123.462 189.651 123.547 189.225 123.597Z" fill="#231F20"/>
<path d="M157.862 59.865C157.862 59.865 170.225 78.4395 162.744 78.7034C155.263 78.9673 154.624 77.0083 154.624 77.0083" fill="white"/>
<path d="M161.404 79.292C155.131 79.292 154.228 77.5767 154.106 77.262C154.064 77.1287 154.076 76.9843 154.138 76.8592C154.201 76.7342 154.309 76.6384 154.441 76.5921C154.573 76.5503 154.716 76.562 154.84 76.6247C154.963 76.6873 155.057 76.7959 155.101 76.9271C155.101 76.9271 156.015 78.5003 162.724 78.2567C163.051 78.2869 163.379 78.2226 163.671 78.0714C163.962 77.9203 164.204 77.6887 164.368 77.4041C165.972 74.2881 159.902 63.9554 157.425 60.2405C157.359 60.1248 157.339 59.9883 157.369 59.8583C157.399 59.7284 157.477 59.6146 157.588 59.54C157.699 59.4655 157.833 59.4355 157.965 59.4562C158.097 59.477 158.216 59.5468 158.298 59.6518C159.242 61.0728 167.433 73.6588 165.302 77.9218C165.058 78.3764 164.69 78.7523 164.241 79.0057C163.791 79.2591 163.279 79.3795 162.764 79.3529L161.404 79.292Z" fill="#231F20"/>
<path d="M192.291 66.5031C194.768 66.5031 196.777 63.0812 196.777 58.8601C196.777 54.639 194.768 51.2172 192.291 51.2172C189.813 51.2172 187.804 54.639 187.804 58.8601C187.804 63.0812 189.813 66.5031 192.291 66.5031Z" fill="#D1D3D4"/>
<path d="M137.389 65.0414C139.278 65.0414 140.81 62.2739 140.81 58.8601C140.81 55.4462 139.278 52.6787 137.389 52.6787C135.5 52.6787 133.969 55.4462 133.969 58.8601C133.969 62.2739 135.5 65.0414 137.389 65.0414Z" fill="#231F20"/>
</svg>
